# xmcd
#
# Track frame offsets:
# 150
# 14120
# 27867
# 42840
# 57627
# 69577
# 82560
# 96312
# 110982
# 125897
# 139242
# 153640
# 167287
# 181517
# 195802
# 208852
# 223110
# 236955
# 246717
# 260485
# 273945
# 287420
# 302092
# 316945
# 332335
#
# Disc length: 4616 seconds
#
#
# Revision: 0
# Processed by: cddbd v1.4PL0 Copyright (c) Steve Scherf et al.
# Submitted via: FreeRIP 2.35 
#
DISCID=73120619
DTITLE=Billie Holiday - Wishing on the moon
DYEAR=1900
DGENRE=
TTITLE0=Iwished on the moon
TTITLE1=Twnty-four hours a day
TTITLE2=These foolish things
TTITLE3=I cried for you
TTITLE4=No regrets
TTITLE5=A fine romance
TTITLE6=The way you look tonight
TTITLE7=Who loves you
TTITLE8=Pennies from heven
TTITLE9=I've got my love to keep me warm
TTITLE10=This year's kisses
TTITLE11=The mood that i'm in
TTITLE12=Carelessly
TTITLE13=Mean to me
TTITLE14=A sailboat in the moonlight
TTITLE15=Nice work if you can get it
TTITLE16=My man (Mon homme)
TTITLE17=I'm gonna lock my heart
TTITLE18=All of me
TTITLE19=God bless the child
TTITLE20=I cover the waterfront
TTITLE21=Lover, come back to me
TTITLE22=Lover man
TTITLE23=Don't explain
TTITLE24=Good morning hearthache
EXTD=
EXTT0=
EXTT1=
EXTT2=
EXTT3=
EXTT4=
EXTT5=
EXTT6=
EXTT7=
EXTT8=
EXTT9=
EXTT10=
EXTT11=
EXTT12=
EXTT13=
EXTT14=
EXTT15=
EXTT16=
EXTT17=
EXTT18=
EXTT19=
EXTT20=
EXTT21=
EXTT22=
EXTT23=
EXTT24=
PLAYORDER=
